<?xml version="1.0" encoding="utf-8"?>
<!-- Generator: Adobe Illustrator 15.1.0, SVG Export Plug-In  -->
<!DOCTYPE svg PUBLIC "-//W3C//DTD SVG 1.1//EN" "http://www.w3.org/Graphics/SVG/1.1/DTD/svg11.dtd" [
	<!ENTITY ns_flows "http://ns.adobe.com/Flows/1.0/">
]>
<svg version="1.1"
	 xmlns="http://www.w3.org/2000/svg" xmlns:xlink="http://www.w3.org/1999/xlink" xmlns:a="http://ns.adobe.com/AdobeSVGViewerExtensions/3.0/"
	 x="0px" y="0px" width="595px" height="842px" viewBox="-54.4 -26.8 595 842" enable-background="new -54.4 -26.8 595 842"
	 xml:space="preserve">
<defs>
</defs>
<path stroke="#000000" stroke-miterlimit="10" d="M250.6,534.7l29.5-50l17,45l21.5-45l56.8,32l-25.2-64c0,0,183.1,47,163.1,35
	s-124.1-166-119.1-161s103,22,82,20s-130-148-130-148s111,9,79,0s-111-94-111-94s79,7,63,3S250.6,0.7,250.6,0.7
	c-3.9,3.7-106.1,101-126,106c-16,4,63-3,63-3s-79,85-111,94s79,0,79,0s-109,146-130,148s77-15,82-20s-85.5,138-105.5,150
	s149.5-24,149.5-24l-25.2,64l57.2-30l21,43l17-45L250.6,534.7z"/>
</svg>
